<?xml version="1.0" standalone="no"?>
<!DOCTYPE svg PUBLIC "-//W3C//DTD SVG 20010904//EN"
 "http://www.w3.org/TR/2001/REC-SVG-20010904/DTD/svg10.dtd">
<svg version="1.0" xmlns="http://www.w3.org/2000/svg"
 width="160.000000pt" height="160.000000pt" viewBox="0 0 160.000000 160.000000"
 preserveAspectRatio="xMidYMid meet">
<metadata>
Created by potrace 1.14, written by Peter Selinger 2001-2017
</metadata>
<g transform="translate(0.000000,160.000000) scale(0.100000,-0.100000)"
fill="#000000" stroke="none">
<path d="M0 800 l0 -800 800 0 800 0 0 800 0 800 -800 0 -800 0 0 -800z m220
218 c37 -40 41 -54 20 -73 -18 -16 -20 -15 -45 24 -40 59 -20 96 25 49z m620
-17 c0 -10 -7 -21 -15 -25 -9 -3 -15 -18 -15 -36 0 -18 6 -33 15 -36 19 -8 20
-34 2 -34 -47 0 -66 91 -27 130 25 25 40 26 40 1z m54 -2 c29 -23 34 -39 11
-39 -19 0 -55 31 -55 47 0 18 13 16 44 -8z m106 6 c0 -8 -9 -19 -20 -25 -12
-6 -20 -21 -20 -35 0 -14 9 -30 20 -37 23 -15 27 -38 5 -38 -27 0 -55 38 -55
74 0 25 7 40 26 55 31 25 44 26 44 6z m55 -10 c14 -13 25 -35 25 -48 0 -29
-35 -77 -56 -77 -20 0 -17 17 6 40 11 11 20 26 20 33 0 8 -9 22 -20 32 -21 19
-27 45 -10 45 6 0 22 -11 35 -25z m149 4 c33 -26 36 -79 6 -109 -25 -25 -110
-29 -110 -5 0 11 11 15 38 15 43 0 62 14 62 47 0 26 -27 43 -69 43 -21 0 -31
5 -31 15 0 23 72 19 104 -6z m166 6 c0 -12 -13 -15 -60 -15 -55 0 -70 6 -53
23 3 4 30 7 60 7 40 0 53 -4 53 -15z m-843 -29 c51 -24 113 -91 113 -123 0
-16 14 -17 40 -3 20 11 39 -4 20 -15 -6 -4 -8 -16 -4 -27 5 -18 3 -20 -20 -16
-23 5 -27 1 -36 -32 -12 -45 -62 -92 -117 -111 -21 -7 -69 -13 -108 -13 -131
0 -215 66 -215 170 0 107 99 193 220 194 37 0 72 -8 107 -24z m833 -31 c0 -12
-13 -15 -55 -15 -51 0 -65 7 -48 23 3 4 28 7 55 7 36 0 48 -4 48 -15z m-449
-44 c-15 -28 -61 -43 -61 -20 0 16 31 38 53 39 14 0 16 -4 8 -19z m459 -16 c0
-12 -13 -15 -60 -15 -55 0 -70 6 -53 23 3 4 30 7 60 7 40 0 53 -4 53 -15z
m-455 -80 c36 -35 34 -88 -5 -126 -26 -27 -35 -30 -82 -27 -39 2 -53 7 -53 18
0 11 14 16 50 18 59 4 75 15 75 53 0 36 -32 59 -82 59 -36 0 -54 11 -41 24 3
3 31 6 60 6 44 0 58 -5 78 -25z m182 -60 c18 -44 33 -83 33 -87 0 -5 -41 -8
-91 -8 -81 0 -90 2 -87 18 2 13 15 18 61 20 31 2 57 6 57 9 0 14 -24 73 -30
73 -3 0 -12 -16 -19 -35 -8 -24 -19 -35 -32 -35 -25 0 -24 6 6 74 36 82 57 76
102 -29z m93 55 c0 -23 -4 -30 -20 -30 -16 0 -20 7 -20 30 0 23 4 30 20 30 16
0 20 -7 20 -30z m100 16 c0 -8 -7 -16 -15 -20 -26 -10 -16 -25 25 -36 66 -18
87 -54 53 -92 -22 -25 -53 -24 -53 2 0 12 7 20 16 20 28 0 9 24 -27 33 -61 16
-89 63 -57 95 17 17 58 15 58 -2z m58 2 c15 -15 16 -48 0 -48 -16 0 -48 31
-48 47 0 16 32 17 48 1z m-158 -113 c0 -48 -2 -55 -20 -55 -18 0 -20 7 -20 55
0 48 2 55 20 55 18 0 20 -7 20 -55z m76 -10 c20 -18 24 -29 17 -36 -23 -23
-85 24 -68 51 10 16 22 12 51 -15z"/>
<path d="M334 841 c-48 -22 -74 -54 -74 -92 0 -58 81 -81 124 -34 13 14 30 25
38 25 8 0 25 -11 38 -25 41 -44 112 -29 125 26 5 21 0 34 -24 61 -50 58 -149
74 -227 39z m6 -76 c0 -8 -6 -15 -14 -15 -17 0 -28 14 -19 24 12 12 33 6 33
-9z m200 0 c0 -8 -9 -15 -20 -15 -11 0 -20 7 -20 15 0 8 9 15 20 15 11 0 20
-7 20 -15z"/>
</g>
</svg>
